<?xml version="1.0" encoding="UTF-8" standalone="no"?>
<svg
   id="Layer_2"
   viewBox="0 0 505.99999 299.99999"
   version="1.1"
   width="506"
   height="300"
   xml:space="preserve"
   xmlns="http://www.w3.org/2000/svg"
   xmlns:svg="http://www.w3.org/2000/svg"><defs
     id="defs4"><style
       id="style2">.cls-1,.cls-2,.cls-3{fill:#fff;}.cls-4{fill:#fffdfe;stroke-width:3.79px;}.cls-4,.cls-2,.cls-3{stroke:#fff;stroke-miterlimit:10;}.cls-2{stroke-width:.91px;}.cls-3{stroke-width:.41px;}.cls-5{fill:#ce3e49;}.cls-6{fill:#0175ba;}.cls-7{fill:#231f20;}.cls-8{fill:#dfc151;}</style></defs><g
     id="Layer_1-2"><g
       id="g84"
       transform="translate(32.547131,70.323396)"><g
         id="g20"><path
           class="cls-2"
           d="M 216.38,77.23 209.6,58.69 h -3.53 v 18.54 h -11.88 v -50.2 h 19.28 c 8.63,0 14.35,6.31 14.35,15.25 0,7.53 -2.24,11.78 -7.12,13.97 l 10.03,20.98 z m -5.16,-38.68 h -5.1 v 9.33 h 5.1 c 2.63,0 4.32,-1.87 4.32,-4.89 0,-2.7 -1.63,-4.44 -4.32,-4.44 z"
           id="path6" /><path
           class="cls-2"
           d="m 264.91,60.62 -20.9,2.9 c 0.67,2.7 3.36,4.18 6.61,4.18 3.25,0 6.5,-1.42 8.57,-4.18 l 5.49,7.53 c -3.98,5.02 -7.73,7.08 -14.96,7.08 -9.81,0 -16.31,-7.4 -16.31,-18.92 0,-10.1 5.55,-18.79 16.08,-18.79 9.53,0 15.47,7.21 15.47,18.41 -0.0157,0.823732 -0.009,0.931869 -0.05,1.79 z m -15.52,-9.91 c -3.03,0 -4.99,1.87 -5.49,4.83 L 254.21,54 c -0.39,-2 -2.07,-3.28 -4.82,-3.28 z"
           id="path8" /><path
           class="cls-2"
           d="m 289.4,78.13 c -12.16,0 -16.59,-2.77 -16.59,-12.49 V 51.48 h -4.48 V 41.31 h 5.04 V 30.05 h 11.1 v 11.26 h 5.21 v 10.17 h -5.21 v 11.2 c 0,4.51 0.62,4.51 6.84,4.51 z"
           id="path10" /><path
           class="cls-2"
           d="m 314.12,50.91 c -3.64,0 -5.94,1.61 -6.61,4.5 V 77.23 H 295.85 V 41.32 h 9.98 v 3.35 c 2.41,-3.03 5.32,-4.25 11.43,-4.25 l 1.51,11.2 c -1.74,-0.45 -3.31,-0.71 -4.65,-0.71 z"
           id="path12" /><path
           class="cls-2"
           d="m 338.95,78.13 c -10.54,0 -16.98,-7.47 -16.98,-18.86 0,-11.39 6.45,-18.86 16.98,-18.86 10.53,0 16.93,7.47 16.93,18.86 0,11.39 -6.33,18.86 -16.93,18.86 z m 0,-27.16 c -3.36,0 -5.16,3.22 -5.16,8.3 0,5.08 1.79,8.43 5.16,8.43 3.37,0 5.1,-3.28 5.1,-8.43 0,-5.15 -1.74,-8.3 -5.1,-8.3 z"
           id="path14" /><path
           class="cls-2"
           d="m 362.6,77.23 v -50.2 h 30.99 V 38.55 H 374.7 v 7.47 h 15.97 V 57.28 H 374.7 v 8.43 h 20.06 v 11.52 h -32.17 z"
           id="path16" /><path
           class="cls-2"
           d="m 419.88,77.23 h -18.05 v -50.2 h 18.05 c 11.66,0 20.51,9.46 20.51,25.1 0,15.64 -8.8,25.1 -20.51,25.1 z m -1.12,-38.42 h -4.71 v 26.65 h 4.71 c 5.1,0 9.42,-3.93 9.42,-13.32 0,-9.39 -4.37,-13.32 -9.42,-13.32 z"
           id="path18" /></g><g
         id="g50"><path
           class="cls-3"
           d="m 203.19,128.66 h -9.26 v -22.78 h 8.8 c 3.82,0 6.18,2.48 6.18,5.75 0,2.48 -1.07,4.32 -2.98,4.67 v 0.12 c 2.14,0.15 4.04,2.25 4.04,5.75 0,3.5 -2.37,6.48 -6.79,6.48 z m -1.27,-17.73 h -2.52 v 3.65 h 2.49 c 1.12,0 1.6,-0.82 1.6,-1.78 0,-0.88 -0.51,-1.87 -1.58,-1.87 z m 0.33,8.41 h -2.85 v 4.12 h 3 c 1.35,0 2.06,-0.82 2.06,-2.1 0,-1.2 -0.79,-2.02 -2.21,-2.02 z"
           id="path22" /><path
           class="cls-3"
           d="m 221.66,128.66 c -1.25,4.38 -3.94,5.96 -8.34,5.96 l -1.27,-4.96 c 3.18,0 3.82,-0.18 4.53,-2.28 l -5.49,-15.01 h 5.62 l 1.65,5.2 c 0.48,1.49 0.66,2.77 0.92,4.18 h 0.05 c 0.2,-1.49 0.33,-2.37 0.71,-4.09 l 1.14,-5.29 h 5.11 c -1.5433,5.42079 -3.09107,10.90412 -4.63,16.29 z"
           id="path24" /><path
           class="cls-3"
           d="m 247.61,128.66 -3.08,-8.41 h -1.6 v 8.41 h -5.39 v -22.78 h 8.75 c 3.92,0 6.51,2.86 6.51,6.92 0,3.42 -1.02,5.34 -3.23,6.34 l 4.55,9.52 z m -2.34,-17.55 h -2.31 v 4.23 h 2.31 c 1.2,0 1.96,-0.85 1.96,-2.22 0,-1.23 -0.74,-2.02 -1.96,-2.02 z"
           id="path26" /><path
           class="cls-3"
           d="m 264.8,128.66 h -8.19 v -22.78 h 8.19 c 5.29,0 9.31,4.29 9.31,11.39 0,7.1 -3.99,11.39 -9.31,11.39 z m -0.51,-17.44 h -2.14 v 12.09 h 2.14 c 2.31,0 4.27,-1.78 4.27,-6.05 0,-4.27 -1.98,-6.05 -4.27,-6.05 z"
           id="path28" /><path
           class="cls-3"
           d="m 286.22,129.33 c -5.83,0 -9.82,-4.73 -9.82,-12.12 0,-7.39 3.99,-12 9.82,-12 3.61,0 6.51,1.99 7.48,4.58 l -3.41,3.59 c -0.48,-1.34 -2.14,-2.57 -3.56,-2.57 -2.44,0 -4.38,2.19 -4.38,6.4 0,4.21 1.83,6.48 4.38,6.48 1.4,0 3.18,-1.2 3.79,-2.83 l 3.26,3.8 c -1.27,2.89 -4.17,4.67 -7.55,4.67 z"
           id="path30" /><path
           class="cls-3"
           d="m 317.84,128.86 c -0.46,0.12 -0.94,0.2 -1.42,0.2 -1.58,0 -3.08,-0.67 -3.46,-1.69 -0.94,1.29 -2.7,1.69 -4.6,1.69 -2.85,0 -4.5,-1.81 -4.5,-4.64 0,-3.07 1.32,-4.96 4.96,-5.84 1.75,-0.41 2.59,-0.88 2.59,-1.34 0,-0.61 -0.2,-0.64 -1.3,-0.64 -0.97,0 -2.98,0.93 -3.89,2.22 l -2.01,-4.23 c 1.5,-1.72 3.43,-2.63 6.38,-2.63 4.4,0 6.31,1.99 6.31,5.64 v 5.46 c 0,0.76 0.53,1.02 1.32,1.02 0.2,0 0.43,-0.03 0.66,-0.06 -0.30013,1.08625 -1.02715,4.76177 -1.04,4.84 z m -6.31,-7.59 c -0.31,0.29 -0.71,0.5 -1.4,0.73 -0.86,0.29 -1.2,0.88 -1.2,1.72 0,0.58 0.38,0.85 0.99,0.85 0.66,0 1.4,-0.64 1.6,-1.46 v -1.84 z"
           id="path32" /><path
           class="cls-3"
           d="m 329.52,128.66 v -9.84 c 0,-1.31 -0.58,-2.04 -1.53,-2.04 -1.07,0 -1.98,0.7 -2.24,1.87 v 10.02 h -5.29 v -16.3 h 4.78 v 1.75 c 0.76,-1.52 2.06,-2.16 4.38,-2.16 3.21,0 5.19,2.86 5.19,6.1 v 10.6 z"
           id="path34" /><path
           class="cls-3"
           d="m 348.14,128.66 v -1.69 c -0.87,1.81 -2.8,2.1 -4.15,2.1 -3.82,0 -6.64,-2.98 -6.64,-8.53 0,-5.55 3.23,-8.59 6.59,-8.59 1.5,0 2.52,0.35 3.23,1.02 v -7.1 h 5.29 v 22.78 h -4.32 z m -0.84,-10.13 c -0.18,-0.85 -0.94,-1.81 -2.11,-1.81 -1.37,0 -2.47,1.34 -2.47,3.91 0,2.57 0.94,3.74 2.52,3.74 1.14,0 2.06,-1.08 2.06,-2.8 z"
           id="path36" /><path
           class="cls-3"
           d="m 370.55,129.06 c -2.49,0 -5.27,-0.93 -6.84,-2.95 l 2.11,-4.12 c 1.37,1.46 3.66,2.51 4.91,2.51 0.71,0 0.97,-0.26 0.97,-0.7 0,-0.64 -0.38,-0.82 -2.34,-1.26 -3.69,-0.82 -5.24,-2.75 -5.24,-5.49 0,-2.74 2.26,-5.11 6.46,-5.11 2.59,0 5.04,0.91 6.31,2.45 l -2.01,3.91 c -1.22,-1.26 -2.87,-2.02 -4.4,-2.02 -0.87,0 -1.02,0.23 -1.02,0.64 0,0.53 0.2,0.67 2.09,1.08 3.94,0.88 5.6,2.8 5.6,5.81 0,3.39 -2.37,5.23 -6.59,5.23 z"
           id="path38" /><path
           class="cls-3"
           d="m 388.23,129.06 c -5.52,0 -7.53,-1.26 -7.53,-5.67 v -6.43 h -2.04 v -4.61 h 2.29 v -5.11 h 5.04 v 5.11 h 2.37 v 4.61 h -2.37 v 5.08 c 0,2.04 0.28,2.04 3.1,2.04 l -0.86,4.96 z"
           id="path40" /><path
           class="cls-1"
           d="m 402.44296,125.16 -4.23018,-4.38 -4.23019,4.38 -2.60259,-2.72 4.2066,-4.36 -4.2066,-4.38 2.60259,-2.7 4.2066,4.38 4.24591,-4.38 2.60259,2.7 -4.23019,4.38 4.23019,4.36 -2.60259,2.72 z"
           id="path42"
           style="stroke-width:0.886724" /><path
           class="cls-3"
           d="m 416.77,129.06 c -5.52,0 -7.53,-1.26 -7.53,-5.67 v -6.43 h -2.04 v -4.61 h 2.29 v -5.11 h 5.04 v 5.11 h 2.37 v 4.61 h -2.37 v 5.08 c 0,2.04 0.28,2.04 3.1,2.04 l -0.86,4.96 z"
           id="path44" /><path
           class="cls-3"
           d="m 419.7,110.78 v -4.91 h 5.44 v 4.91 z m 0.08,17.87 v -16.3 h 5.29 v 16.3 z"
           id="path46" /><path
           class="cls-3"
           d="m 435.5,129.06 c -4.17,0 -7.81,-2.95 -7.81,-8.59 0,-5.11 3.1,-8.53 7.81,-8.53 2.57,0 4.1,0.64 5.52,1.69 l -1.6,4.61 c -0.79,-0.99 -1.96,-1.49 -3.1,-1.49 -1.63,0 -3.28,1.23 -3.28,3.71 0,2.48 1.58,3.8 3.38,3.8 1.14,0 2.57,-0.7 3.33,-1.72 l 1.58,4.23 c -1.42,1.49 -2.85,2.28 -5.83,2.28 z"
           id="path48" /></g></g><g
       id="g119"
       transform="translate(32.547131,70.323396)"><rect
         class="cls-4"
         x="1.89"
         y="1.89"
         width="157.86"
         height="157.86"
         rx="27.719999"
         ry="27.719999"
         id="rect86" /><rect
         class="cls-7"
         x="3.1900001"
         y="3.1900001"
         width="155.27"
         height="155.27"
         rx="26.23"
         ry="26.23"
         id="rect88" /><path
         class="cls-1"
         d="m 108.02,22.13 h 1.73 c 9.85,0 17.83,7.98 17.83,17.83 v 1.73 c 0,1.21 -0.98,2.19 -2.19,2.19 h -17.37 c -1.21,0 -2.19,-0.98 -2.19,-2.19 V 24.31 c 0,-1.21 0.98,-2.19 2.19,-2.19 z"
         id="path90" /><path
         class="cls-1"
         d="m 108.02,93.88 h 1.73 c 9.85,0 17.83,7.98 17.83,17.83 v 1.73 c 0,1.21 -0.98,2.19 -2.19,2.19 h -17.37 c -1.21,0 -2.19,-0.98 -2.19,-2.19 V 96.07 c 0,-1.21 0.98,-2.19 2.19,-2.19 z"
         id="path92" /><path
         class="cls-1"
         d="m 108.02,91.71 h 1.73 c 9.85,0 17.83,-7.98 17.83,-17.83 v -1.73 c 0,-1.21 -0.98,-2.19 -2.19,-2.19 h -17.37 c -1.21,0 -2.19,0.98 -2.19,2.19 v 17.37 c 0,1.21 0.98,2.19 2.19,2.19 z"
         id="path94" /><rect
         class="cls-1"
         x="34.080002"
         y="117.8"
         width="21.74"
         height="21.74"
         rx="2.1900001"
         ry="2.1900001"
         id="rect96" /><rect
         class="cls-1"
         x="105.84"
         y="117.8"
         width="21.74"
         height="21.74"
         rx="2.1900001"
         ry="2.1900001"
         id="rect98" /><rect
         class="cls-1"
         x="105.84"
         y="46.060001"
         width="21.74"
         height="21.74"
         rx="2.1900001"
         ry="2.1900001"
         id="rect100" /><rect
         class="cls-1"
         x="81.919998"
         y="22.129999"
         width="21.74"
         height="21.74"
         rx="2.1900001"
         ry="2.1900001"
         id="rect102" /><rect
         class="cls-1"
         x="58"
         y="22.129999"
         width="21.74"
         height="21.74"
         rx="2.1900001"
         ry="2.1900001"
         id="rect104" /><rect
         class="cls-1"
         x="34.080002"
         y="22.129999"
         width="21.74"
         height="21.74"
         rx="2.1900001"
         ry="2.1900001"
         id="rect106" /><rect
         class="cls-1"
         x="34.080002"
         y="46.049999"
         width="21.74"
         height="21.74"
         rx="2.1900001"
         ry="2.1900001"
         id="rect108" /><rect
         class="cls-1"
         x="34.080002"
         y="69.970001"
         width="21.74"
         height="21.74"
         rx="2.1900001"
         ry="2.1900001"
         id="rect110" /><g
         id="RetroED"><rect
           class="cls-8"
           x="81.93"
           y="93.870003"
           width="21.74"
           height="21.74"
           rx="2.1900001"
           ry="2.1900001"
           id="rect112" /><rect
           class="cls-6"
           x="58.009998"
           y="93.870003"
           width="21.74"
           height="21.74"
           rx="2.1900001"
           ry="2.1900001"
           id="rect114" /><rect
           class="cls-5"
           x="34.09"
           y="93.870003"
           width="21.74"
           height="21.74"
           rx="2.1900001"
           ry="2.1900001"
           id="rect116" /></g></g></g></svg>
