<?xml version="1.0" encoding="UTF-8" standalone="no"?>
<svg
   id="Layer_2"
   viewBox="0 0 505.99999 299.99999"
   version="1.1"
   width="506"
   height="300"
   xml:space="preserve"
   xmlns="http://www.w3.org/2000/svg"
   xmlns:svg="http://www.w3.org/2000/svg"><defs
     id="defs4"><style
       id="style2">.cls-1,.cls-2,.cls-3{fill:#fff;}.cls-4{fill:#fffdfe;stroke-width:3.79px;}.cls-4,.cls-2,.cls-3{stroke:#fff;stroke-miterlimit:10;}.cls-2{stroke-width:.91px;}.cls-3{stroke-width:.41px;}.cls-5{fill:#ce3e49;}.cls-6{fill:#0175ba;}.cls-7{fill:#231f20;}.cls-8{fill:#dfc151;}</style></defs><g
     id="Layer_1-2"><g
       id="g84"
       transform="translate(32.547131,70.323396)"><g
         id="g20"
         transform="translate(0,14)"><path
           class="cls-2"
           d="M 216.38,77.23 209.6,58.69 h -3.53 v 18.54 h -11.88 v -50.2 h 19.28 c 8.63,0 14.35,6.31 14.35,15.25 0,7.53 -2.24,11.78 -7.12,13.97 l 10.03,20.98 z m -5.16,-38.68 h -5.1 v 9.33 h 5.1 c 2.63,0 4.32,-1.87 4.32,-4.89 0,-2.7 -1.63,-4.44 -4.32,-4.44 z"
           id="path6" /><path
           class="cls-2"
           d="m 264.91,60.62 -20.9,2.9 c 0.67,2.7 3.36,4.18 6.61,4.18 3.25,0 6.5,-1.42 8.57,-4.18 l 5.49,7.53 c -3.98,5.02 -7.73,7.08 -14.96,7.08 -9.81,0 -16.31,-7.4 -16.31,-18.92 0,-10.1 5.55,-18.79 16.08,-18.79 9.53,0 15.47,7.21 15.47,18.41 -0.0157,0.823732 -0.009,0.931869 -0.05,1.79 z m -15.52,-9.91 c -3.03,0 -4.99,1.87 -5.49,4.83 L 254.21,54 c -0.39,-2 -2.07,-3.28 -4.82,-3.28 z"
           id="path8" /><path
           class="cls-2"
           d="m 289.4,78.13 c -12.16,0 -16.59,-2.77 -16.59,-12.49 V 51.48 h -4.48 V 41.31 h 5.04 V 30.05 h 11.1 v 11.26 h 5.21 v 10.17 h -5.21 v 11.2 c 0,4.51 0.62,4.51 6.84,4.51 z"
           id="path10" /><path
           class="cls-2"
           d="m 314.12,50.91 c -3.64,0 -5.94,1.61 -6.61,4.5 V 77.23 H 295.85 V 41.32 h 9.98 v 3.35 c 2.41,-3.03 5.32,-4.25 11.43,-4.25 l 1.51,11.2 c -1.74,-0.45 -3.31,-0.71 -4.65,-0.71 z"
           id="path12" /><path
           class="cls-2"
           d="m 338.95,78.13 c -10.54,0 -16.98,-7.47 -16.98,-18.86 0,-11.39 6.45,-18.86 16.98,-18.86 10.53,0 16.93,7.47 16.93,18.86 0,11.39 -6.33,18.86 -16.93,18.86 z m 0,-27.16 c -3.36,0 -5.16,3.22 -5.16,8.3 0,5.08 1.79,8.43 5.16,8.43 3.37,0 5.1,-3.28 5.1,-8.43 0,-5.15 -1.74,-8.3 -5.1,-8.3 z"
           id="path14" /><path
           class="cls-2"
           d="m 362.6,77.23 v -50.2 h 30.99 V 38.55 H 374.7 v 7.47 h 15.97 V 57.28 H 374.7 v 8.43 h 20.06 v 11.52 h -32.17 z"
           id="path16" /><path
           class="cls-2"
           d="m 419.88,77.23 h -18.05 v -50.2 h 18.05 c 11.66,0 20.51,9.46 20.51,25.1 0,15.64 -8.8,25.1 -20.51,25.1 z m -1.12,-38.42 h -4.71 v 26.65 h 4.71 c 5.1,0 9.42,-3.93 9.42,-13.32 0,-9.39 -4.37,-13.32 -9.42,-13.32 z"
           id="path18" /></g><g
         id="g1"
         transform="translate(-32.547131,-70.323396)"><path
           d="m 215.35597,238.62781 -4.296,-7.824 c 2.088,-0.816 3.048,-2.4 3.048,-5.208 0,-3.336 -2.448,-5.688 -6.144,-5.688 h -8.256 v 18.72 h 5.088 v -6.912 h 1.512 l 2.904,6.912 z m -6.504,-12.768 c 0,1.128 -0.72,1.824 -1.848,1.824 h -2.184 v -3.48 h 2.184 c 1.152,0 1.848,0.648 1.848,1.656 z m 22.848,6.96 c 0,-2.928 -1.872,-4.752 -4.584,-5.64 l -3.096,-1.008 c -1.08,-0.36 -1.632,-0.816 -1.632,-1.344 0,-0.72 0.432,-1.224 2.136,-1.224 1.224,0 2.496,0.84 3,2.136 l 3.72,-2.664 c -1.128,-2.448 -3.48,-3.72 -6.936,-3.72 -4.416,0 -6.936,2.616 -6.936,5.76 0,2.928 1.584,4.44 4.368,5.448 l 2.712,0.984 c 1.512,0.552 1.944,1.104 1.944,1.872 0,0.84 -0.552,1.32 -2.136,1.32 -1.392,0 -3.024,-1.056 -3.864,-3.168 l -3.888,2.64 c 1.128,3.144 3.816,4.968 7.776,4.968 4.776,0 7.416,-2.28 7.416,-6.36 z m 20.11199,-3.552 c 0,-5.832 -3.792,-9.36 -8.784,-9.36 h -7.728 v 18.72 h 7.728 c 5.016,0 8.784,-3.312 8.784,-9.36 z m -5.232,0 c 0,3.504 -1.848,4.968 -4.032,4.968 h -2.016 v -9.936 h 2.016 c 2.16,0 4.032,1.464 4.032,4.968 z m 24.74402,9.36 -6.672,-11.232 6.144,-7.488 h -5.976 l -4.776,6.048 v -6.048 h -5.112 v 18.72 h 5.112 v -6.216 l 1.008,-1.2 4.128,7.416 z m 20.784,0 v -18.72 h -7.56 l -1.752,10.008 c -0.192,1.032 -0.24,3.048 -0.24,3.048 h -0.096 c 0,0 -0.072,-1.968 -0.288,-3.048 l -1.92,-10.008 h -7.224 v 18.72 h 4.296 v -5.496 c 0,-2.16 -0.36,-8.208 -0.36,-8.208 h 0.144 c 0.072,0.72 0.696,4.896 0.888,5.688 l 1.848,8.016 h 5.256 l 1.632,-8.016 c 0.288,-1.464 0.84,-5.688 0.84,-5.688 h 0.168 c 0,0 -0.36,6.264 -0.36,8.136 v 5.568 z m 17.4,-6.696 c 0,-4.248 -2.712,-7.032 -7.248,-7.032 -4.512,0 -7.272,2.784 -7.272,7.032 0,4.248 2.76,7.032 7.272,7.032 4.536,0 7.248,-2.784 7.248,-7.032 z m -5.064,0 c 0,1.92 -0.744,3.144 -2.184,3.144 -1.44,0 -2.208,-1.224 -2.208,-3.144 0,-1.896 0.768,-3.096 2.208,-3.096 1.44,0 2.184,1.2 2.184,3.096 z m 20.99998,6.696 v -18.72 h -4.992 v 5.832 c -0.672,-0.552 -1.632,-0.84 -3.048,-0.84 -3.168,0 -6.216,2.448 -6.216,7.056 0,4.56 2.664,7.008 6.264,7.008 1.272,0 3.096,-0.24 3.912,-1.728 v 1.392 z m -4.872,-5.832 c 0,1.416 -0.864,2.304 -1.944,2.304 -1.488,0 -2.376,-1.056 -2.376,-3.072 0,-2.112 1.032,-3.216 2.328,-3.216 1.104,0 1.824,0.792 1.992,1.488 z m 21.52801,5.832 v -18.72 h -4.992 v 5.832 c -0.672,-0.552 -1.632,-0.84 -3.048,-0.84 -3.168,0 -6.216,2.448 -6.216,7.056 0,4.56 2.664,7.008 6.264,7.008 1.272,0 3.096,-0.24 3.912,-1.728 v 1.392 z m -4.872,-5.832 c 0,1.416 -0.864,2.304 -1.944,2.304 -1.488,0 -2.376,-1.056 -2.376,-3.072 0,-2.112 1.032,-3.216 2.328,-3.216 1.104,0 1.824,0.792 1.992,1.488 z m 13.128,-8.856 v -4.032 h -5.136 v 4.032 z m -0.072,14.688 v -13.392 h -4.992 v 13.392 z m 16.728,0 v -8.712 c 0,-2.664 -1.872,-5.016 -4.896,-5.016 -2.184,0 -3.408,0.528 -4.128,1.776 v -1.44 h -4.512 v 13.392 h 4.992 v -8.232 c 0.24,-0.96 1.104,-1.536 2.112,-1.536 0.888,0 1.44,0.6 1.44,1.68 v 8.088 z m 16.17601,-0.792 v -12.6 h -3.6 l -0.672,1.08 c -0.552,-0.936 -1.824,-1.416 -3.768,-1.416 -3.168,0 -5.736,2.448 -5.736,6.624 0,4.128 2.544,6.312 5.952,6.312 1.2,0 2.304,-0.24 3.048,-0.672 v 0.408 c 0,1.248 -0.408,1.944 -3.336,1.944 -1.176,0 -3.576,-0.264 -4.896,-0.552 l 1.176,4.344 c 0.672,0.072 2.352,0.216 3.888,0.216 5.976,0 7.944,-1.848 7.944,-5.688 z m -4.8,-5.28 c 0,1.128 -0.864,1.824 -1.944,1.824 -1.344,0 -2.136,-1.032 -2.136,-2.832 0,-1.824 0.792,-2.736 2.088,-2.736 1.056,0 1.728,0.624 1.992,1.368 z m 29.68797,-8.352 v -4.296 h -14.688 v 4.296 h 4.704 v 14.424 h 5.256 v -14.424 z m 13.75199,7.56 c 0,-4.176 -2.544,-6.864 -6.624,-6.864 -4.512,0 -6.888,3.24 -6.888,7.008 0,4.296 2.784,7.056 6.984,7.056 3.096,0 4.704,-0.768 6.408,-2.64 l -2.352,-2.808 c -0.888,1.032 -2.256,1.56 -3.672,1.56 -1.392,0 -2.544,-0.552 -2.832,-1.56 l 8.952,-1.08 c 0.024,-0.24 0.024,-0.456 0.024,-0.672 z m -4.608,-1.8 -4.416,0.576 c 0.216,-1.104 1.056,-1.8 2.352,-1.8 1.176,0 1.896,0.48 2.064,1.224 z m 20.49602,4.848 c -0.216,0.024 -0.432,0.048 -0.624,0.048 -0.744,0 -1.248,-0.216 -1.248,-0.84 v -4.488 c 0,-3 -1.8,-4.632 -5.952,-4.632 -2.784,0 -4.608,0.744 -6.024,2.16 l 1.896,3.48 c 0.864,-1.056 2.76,-1.824 3.672,-1.824 1.032,0 1.224,0.024 1.224,0.528 0,0.384 -0.792,0.768 -2.448,1.104 -3.432,0.72 -4.68,2.28 -4.68,4.8 0,2.328 1.56,3.816 4.248,3.816 1.8,0 3.456,-0.336 4.344,-1.392 0.36,0.84 1.776,1.392 3.264,1.392 0.456,0 0.912,-0.072 1.344,-0.168 z m -6.936,-0.744 c -0.192,0.672 -0.888,1.2 -1.512,1.2 -0.576,0 -0.936,-0.216 -0.936,-0.696 0,-0.696 0.312,-1.176 1.128,-1.416 0.648,-0.192 1.032,-0.36 1.32,-0.6 z m 28.39198,4.56 v -9.264 c 0,-2.568 -1.728,-4.464 -4.032,-4.464 -1.92,0 -3.528,0.6 -4.128,1.896 -0.504,-1.056 -1.8,-1.896 -3.384,-1.896 -2.112,0 -3.336,0.672 -3.912,1.752 v -1.416 h -4.512 v 13.392 h 4.992 v -8.16 c 0.192,-0.864 0.528,-1.536 1.416,-1.536 0.864,0 1.104,0.552 1.104,1.68 v 8.016 h 4.944 v -8.16 c 0.096,-0.816 0.408,-1.536 1.392,-1.536 0.84,0 1.128,0.528 1.128,1.68 v 8.016 z"
           id="text1"
           style="font-weight:900;font-stretch:extra-expanded;font-size:24px;font-family:'FOT-Rodin Pro';-inkscape-font-specification:'FOT-Rodin Pro, Heavy Extra-Expanded';white-space:pre;fill:#ffffff;stroke-width:2.501"
           transform="matrix(0.80442319,0,0,0.8757256,82.742879,-21.492156)"
           aria-label="RSDKModding Team" /></g></g><g
       id="g119"
       transform="translate(32.547131,70.323396)"><rect
         class="cls-4"
         x="1.89"
         y="1.89"
         width="157.86"
         height="157.86"
         rx="27.719999"
         ry="27.719999"
         id="rect86" /><rect
         class="cls-7"
         x="3.1900001"
         y="3.1900001"
         width="155.27"
         height="155.27"
         rx="26.23"
         ry="26.23"
         id="rect88" /><path
         class="cls-1"
         d="m 108.02,22.13 h 1.73 c 9.85,0 17.83,7.98 17.83,17.83 v 1.73 c 0,1.21 -0.98,2.19 -2.19,2.19 h -17.37 c -1.21,0 -2.19,-0.98 -2.19,-2.19 V 24.31 c 0,-1.21 0.98,-2.19 2.19,-2.19 z"
         id="path90" /><path
         class="cls-1"
         d="m 108.02,93.88 h 1.73 c 9.85,0 17.83,7.98 17.83,17.83 v 1.73 c 0,1.21 -0.98,2.19 -2.19,2.19 h -17.37 c -1.21,0 -2.19,-0.98 -2.19,-2.19 V 96.07 c 0,-1.21 0.98,-2.19 2.19,-2.19 z"
         id="path92" /><path
         class="cls-1"
         d="m 108.02,91.71 h 1.73 c 9.85,0 17.83,-7.98 17.83,-17.83 v -1.73 c 0,-1.21 -0.98,-2.19 -2.19,-2.19 h -17.37 c -1.21,0 -2.19,0.98 -2.19,2.19 v 17.37 c 0,1.21 0.98,2.19 2.19,2.19 z"
         id="path94" /><rect
         class="cls-1"
         x="34.080002"
         y="117.8"
         width="21.74"
         height="21.74"
         rx="2.1900001"
         ry="2.1900001"
         id="rect96" /><rect
         class="cls-1"
         x="105.84"
         y="117.8"
         width="21.74"
         height="21.74"
         rx="2.1900001"
         ry="2.1900001"
         id="rect98" /><rect
         class="cls-1"
         x="105.84"
         y="46.060001"
         width="21.74"
         height="21.74"
         rx="2.1900001"
         ry="2.1900001"
         id="rect100" /><rect
         class="cls-1"
         x="81.919998"
         y="22.129999"
         width="21.74"
         height="21.74"
         rx="2.1900001"
         ry="2.1900001"
         id="rect102" /><rect
         class="cls-1"
         x="58"
         y="22.129999"
         width="21.74"
         height="21.74"
         rx="2.1900001"
         ry="2.1900001"
         id="rect104" /><rect
         class="cls-1"
         x="34.080002"
         y="22.129999"
         width="21.74"
         height="21.74"
         rx="2.1900001"
         ry="2.1900001"
         id="rect106" /><rect
         class="cls-1"
         x="34.080002"
         y="46.049999"
         width="21.74"
         height="21.74"
         rx="2.1900001"
         ry="2.1900001"
         id="rect108" /><rect
         class="cls-1"
         x="34.080002"
         y="69.970001"
         width="21.74"
         height="21.74"
         rx="2.1900001"
         ry="2.1900001"
         id="rect110" /><g
         id="RetroED"><rect
           class="cls-8"
           x="81.93"
           y="93.870003"
           width="21.74"
           height="21.74"
           rx="2.1900001"
           ry="2.1900001"
           id="rect112" /><rect
           class="cls-6"
           x="58.009998"
           y="93.870003"
           width="21.74"
           height="21.74"
           rx="2.1900001"
           ry="2.1900001"
           id="rect114" /><rect
           class="cls-5"
           x="34.09"
           y="93.870003"
           width="21.74"
           height="21.74"
           rx="2.1900001"
           ry="2.1900001"
           id="rect116" /></g></g></g></svg>
