<?xml version="1.0" encoding="UTF-8" standalone="no"?>
<svg
   height="48"
   viewBox="0 0 24 24"
   width="48"
   fill="#ffffff"
   version="1.1"
   id="svg2"
   xml:space="preserve"
   xmlns="http://www.w3.org/2000/svg"
   xmlns:svg="http://www.w3.org/2000/svg"><defs
     id="defs2" /><path
     d="M 0,0 H 24 V 24 H 0 Z"
     fill="none"
     id="path1" /><path
     id="path6"
     style="opacity:1;fill:#ffffff;stroke-width:0.82437"
     d="m 8.3639951,17.521664 c -0.6001568,2.056867 -4.6958123,6.35412 0.019316,6.35412 4.7151229,0 0.5386954,-4.298502 -0.019316,-6.35412 z m 0.4557976,1.633274 c 0,0 0.4119231,0.612894 0.5967855,0.932193 0.1659616,0.286659 0.3429948,0.571086 0.4590158,0.881338 0.156532,0.418582 0.360825,0.859345 0.312878,1.303657 -0.02749,0.25478 -0.135892,0.530447 -0.334767,0.692065 -0.2097479,0.17046 -0.528212,0.275308 -0.7867017,0.196352 -0.1560649,-0.04767 -0.3076485,-0.20178 -0.3276844,-0.363736 -0.01661,-0.133762 0.2047218,-0.444853 0.2047218,-0.444853 0.070748,-0.202188 0.1253883,-0.273907 0.1686782,-0.4867 0.038739,-0.190444 0.025365,-0.430167 0.009,-0.623822 -0.032768,-0.388008 -0.074709,-0.733477 -0.1422734,-1.11696 -0.056509,-0.320784 -0.1596636,-0.969534 -0.1596636,-0.969534 z" /><g
     style="fill:#ffffff"
     id="g4"
     transform="matrix(2.2414872,0,0,2.2414872,-23.993231,-16.150124)"><path
       id="path2-8"
       style="opacity:1;stroke-width:0.55168"
       d="m 19.687725,7.235435 c -0.20981,-0.00328 -0.417139,0.046581 -0.518014,0.1604662 l -1.356963,1.532506 C 16.04022,8.2147919 17.00934,9.7867399 17.00934,9.7867399 l 0.638634,0.6386341 -0.0059,0.0035 0.821952,0.796712 0.04445,0.06026 0.56971,0.569709 c 1.864607,0.713615 0.801253,-0.855102 0.801253,-0.855102 L 21.238556,9.464721 C 21.440316,9.23696 21.443913,8.4740492 21.215936,8.2725325 L 20.224048,7.3959012 C 20.110061,7.2951428 19.897535,7.2387166 19.687725,7.235435 Z m -1.179265,4.050425 -0.304912,-0.489072 -2.887625,3.130572 -0.754608,0.832485 -0.33601,-0.256315 0.529861,-0.872333 2.968195,-3.130437 -0.12961,-0.139468 -2.978458,3.210967 -0.510541,0.964051 0.435478,0.334793 1.005418,-0.52912 z" /></g></svg>
