<?xml version="1.0" encoding="UTF-8" standalone="no"?>
<svg
   height="48"
   viewBox="0 0 24 24"
   width="48"
   fill="#ffffff"
   version="1.1"
   id="svg2"
   xmlns="http://www.w3.org/2000/svg"
   xmlns:svg="http://www.w3.org/2000/svg">
  <defs
     id="defs2" />
  <path
     d="M 0,0 H 24 V 24 H 0 Z"
     fill="none"
     id="path1" />
  <path
     d="m 6.0440156,14.89429 v 4.5 H 18.044015 v -4.5 c 0,-0.824999 -0.674999,-1.5 -1.499999,-1.5 H 7.5440156 c -0.825,0 -1.5,0.675001 -1.5,1.5 z M 16.544016,16.394291 H 7.5440156 V 14.89429 h 9.0000004 z m -4.5,-11.9999999 c -2.07,0 -3.7500005,1.68 -3.7500005,3.7500001 L 12.044016,13.39429 15.794015,8.1442912 c 0,-2.0700001 -1.679999,-3.7500001 -3.749999,-3.7500001 z m 0,6.7499999 -2.25,-2.9999998 c 0,-1.2450001 1.005,-2.2500001 2.25,-2.2500001 1.245,0 2.25,1.005 2.25,2.2500001 z"
     id="path1-1"
     style="stroke-width:0.750001" />
  <path
     d="M 0,0 H 24 V 24 H 0 Z"
     fill="none"
     id="path1-9" />
  <path
     d="m 18.256457,3.2564577 h -2.5 l 4.3e-5,-2.50000014 h 2.499957 z m 2.5,5 h 2.500001 V 5.7564576 h -2.500001 z m 0,4.9999993 h 2.500001 v -2.499999 h -2.500001 z m -9.999999,10.000001 h 2.499999 V 20.7565 l -2.499999,-4.3e-5 z M 5.7564575,3.2564577 h 2.5 V 0.75645756 h -2.5 z M 0.7564576,18.256457 h 2.5 V 15.7565 l -2.5,-4.3e-5 z m 2.5,5.000001 v -2.500001 h -2.5 c 0,1.375001 1.125,2.500001 2.5,2.500001 z M 20.756457,0.75645756 V 3.2564577 h 2.500001 c 0,-1.3750001 -1.125,-2.50000014 -2.500001,-2.50000014 z M 10.756458,3.2564577 h 2.499999 V 0.75645756 h -2.499999 z m -10.0000004,5 h 2.5 V 5.7564576 h -2.5 z M 5.7564575,23.256458 h 2.5 v -2.500001 h -2.5 z M 0.7564576,13.256457 h 2.5 v -2.499999 h -2.5 z m 0,-9.9999993 h 2.5 V 0.75645756 c -1.375,0 -2.5,1.12500004 -2.5,2.50000014 z M 15.757463,23.257501 h 2.499998 V 20.7575 H 15.757463 Z M 20.757462,18.2575 h 2.500001 v -2.5 h -2.500001 z m 2.500075,2.489 -2.50015,0.011 v 2.5 c 1.375,0 2.500693,-1.129932 2.50015,-2.511 z"
     id="path2"
     style="stroke-width:1.25072;stroke-dasharray:none" />
</svg>
