<?xml version="1.0" encoding="utf-8"?>
<!-- Generator: Adobe Illustrator 25.0.1, SVG Export Plug-In . SVG Version: 6.00 Build 0)  -->
<svg version="1.1"
	 id="svg9" inkscape:version="1.1.2 (b8e25be833, 2022-02-05)" sodipodi:docname="RSDK Decomp Icons.svg" xmlns:inkscape="http://www.inkscape.org/namespaces/inkscape" xmlns:sodipodi="http://sodipodi.sourceforge.net/DTD/sodipodi-0.dtd" xmlns:svg="http://www.w3.org/2000/svg"
	 xmlns="http://www.w3.org/2000/svg" xmlns:xlink="http://www.w3.org/1999/xlink" x="0px" y="0px" viewBox="0 0 341.3 341.3"
	 style="enable-background:new 0 0 341.3 341.3;" xml:space="preserve">
<style type="text/css">
	.st0{fill:#FFFDFE;stroke:#FFFFFF;stroke-width:6;stroke-miterlimit:10;}
	.st1{fill:#231F20;}
	.st2{fill:#FFFFFF;}
	.st3{fill:#DFC151;}
	.st4{fill:#0175BA;}
	.st5{fill:#CE3E49;}
</style>
<g>
	<path class="st0" d="M31.8,4H310c15.3,0,27.7,12.4,27.7,27.7v278.2c0,15.3-12.4,27.7-27.7,27.7H31.8c-15.3,0-27.7-12.4-27.7-27.7
		V31.7C4.1,16.4,16.5,4,31.8,4z"/>
	<path class="st1" d="M33.1,6.7h275.7C323.2,6.7,335,18.5,335,33v275.7c0,14.5-11.7,26.2-26.2,26.2H33.1
		c-14.5,0-26.2-11.7-26.2-26.2V33C6.9,18.5,18.6,6.7,33.1,6.7z"/>
	<path class="st2" d="M228.4,46.8h3.6c20.8,0,37.7,16.9,37.7,37.7v3.6c0,2.6-2.1,4.6-4.6,4.6h-36.7c-2.6,0-4.6-2.1-4.6-4.6V51.4
		C223.8,48.8,225.8,46.8,228.4,46.8z"/>
	<path class="st2" d="M228.4,198.4h3.6c20.8,0,37.7,16.9,37.7,37.7v3.6c0,2.6-2.1,4.6-4.6,4.6h-36.7c-2.6,0-4.6-2.1-4.6-4.6V203
		C223.8,200.5,225.8,198.4,228.4,198.4z"/>
	<path class="st2" d="M228.4,193.8h3.6c20.8,0,37.7-16.9,37.7-37.7v-3.6c0-2.6-2.1-4.6-4.6-4.6h-36.7c-2.6,0-4.6,2.1-4.6,4.6v36.7
		C223.8,191.7,225.8,193.8,228.4,193.8z"/>
	<path class="st2" d="M76.7,248.9h36.7c2.6,0,4.6,2.1,4.6,4.6v36.7c0,2.6-2.1,4.6-4.6,4.6H76.7c-2.6,0-4.6-2.1-4.6-4.6v-36.7
		C72.1,251,74.2,248.9,76.7,248.9z"/>
	<path class="st2" d="M228.4,248.9h36.7c2.6,0,4.6,2.1,4.6,4.6v36.7c0,2.6-2.1,4.6-4.6,4.6h-36.7c-2.6,0-4.6-2.1-4.6-4.6v-36.7
		C223.8,251,225.8,248.9,228.4,248.9z"/>
	<path class="st2" d="M228.4,97.3h36.7c2.6,0,4.6,2.1,4.6,4.6v36.7c0,2.6-2.1,4.6-4.6,4.6h-36.7c-2.6,0-4.6-2.1-4.6-4.6v-36.7
		C223.8,99.4,225.8,97.3,228.4,97.3z"/>
	<path class="st2" d="M177.9,46.8h36.7c2.6,0,4.6,2.1,4.6,4.6v36.7c0,2.6-2.1,4.6-4.6,4.6h-36.7c-2.6,0-4.6-2.1-4.6-4.6V51.4
		C173.2,48.8,175.3,46.8,177.9,46.8z"/>
	<path class="st2" d="M127.3,46.8H164c2.6,0,4.6,2.1,4.6,4.6v36.7c0,2.6-2.1,4.6-4.6,4.6h-36.7c-2.6,0-4.6-2.1-4.6-4.6V51.4
		C122.7,48.8,124.8,46.8,127.3,46.8z"/>
	<path class="st2" d="M228.4,97.3h36.7c2.6,0,4.6,2.1,4.6,4.6v36.7c0,2.6-2.1,4.6-4.6,4.6h-36.7c-2.6,0-4.6-2.1-4.6-4.6v-36.7
		C223.8,99.4,225.8,97.3,228.4,97.3z"/>
	<path class="st2" d="M76.7,97.3h36.7c2.6,0,4.6,2.1,4.6,4.6v36.7c0,2.6-2.1,4.6-4.6,4.6H76.7c-2.6,0-4.6-2.1-4.6-4.6v-36.7
		C72.1,99.4,74.2,97.3,76.7,97.3z"/>
	<path class="st2" d="M76.7,46.8h36.7c2.6,0,4.6,2.1,4.6,4.6v36.7c0,2.6-2.1,4.6-4.6,4.6H76.7c-2.6,0-4.6-2.1-4.6-4.6V51.4
		C72.1,48.8,74.2,46.8,76.7,46.8z"/>
	<path class="st2" d="M76.8,97.3h36.7c2.6,0,4.6,2.1,4.6,4.6v36.7c0,2.6-2.1,4.6-4.6,4.6H76.8c-2.6,0-4.6-2.1-4.6-4.6v-36.7
		C72.1,99.4,74.2,97.3,76.8,97.3z"/>
	<path class="st2" d="M76.7,147.9h36.7c2.6,0,4.6,2.1,4.6,4.6v36.7c0,2.6-2.1,4.6-4.6,4.6H76.7c-2.6,0-4.6-2.1-4.6-4.6v-36.7
		C72.1,149.9,74.2,147.9,76.7,147.9z"/>
	<g id="RetroED">
		<path class="st3" d="M177.9,198.4h36.7c2.6,0,4.6,2.1,4.6,4.6v36.7c0,2.6-2.1,4.6-4.6,4.6h-36.7c-2.6,0-4.6-2.1-4.6-4.6V203
			C173.3,200.4,175.3,198.4,177.9,198.4z"/>
		<path class="st4" d="M127.3,198.4H164c2.6,0,4.6,2.1,4.6,4.6v36.7c0,2.6-2.1,4.6-4.6,4.6h-36.7c-2.6,0-4.6-2.1-4.6-4.6V203
			C122.7,200.4,124.8,198.4,127.3,198.4z"/>
		<path class="st5" d="M76.8,198.4h36.7c2.6,0,4.6,2.1,4.6,4.6v36.7c0,2.6-2.1,4.6-4.6,4.6H76.8c-2.6,0-4.6-2.1-4.6-4.6V203
			C72.1,200.4,74.2,198.4,76.8,198.4z"/>
	</g>
</g>
</svg>
